<?xml version="1.0" encoding="UTF-8"?>
<svg version="1.1" xmlns="http://www.w3.org/2000/svg" width="198" height="34">
<path d="M0 0 C2.2734375 1.6015625 2.2734375 1.6015625 4.2734375 3.6015625 C4.3359375 6.9140625 4.3359375 6.9140625 3.2734375 10.6015625 C1.1467035 12.64689041 -1.16528323 14.15039383 -3.7265625 15.6015625 C-1.06096937 17.37862459 1.301499 18.47704523 4.2734375 19.6015625 C4.47839844 18.83070312 4.68335938 18.05984375 4.89453125 17.265625 C5.16394531 16.26273438 5.43335938 15.25984375 5.7109375 14.2265625 C5.97777344 13.22882812 6.24460938 12.23109375 6.51953125 11.203125 C7.2734375 8.6015625 7.2734375 8.6015625 8.2734375 6.6015625 C9.5934375 6.6015625 10.9134375 6.6015625 12.2734375 6.6015625 C11.6134375 10.8915625 10.9534375 15.1815625 10.2734375 19.6015625 C11.0778125 18.2196875 11.8821875 16.8378125 12.7109375 15.4140625 C13.38962891 14.24810547 13.38962891 14.24810547 14.08203125 13.05859375 C15.29735249 10.55224273 15.84970325 8.34365885 16.2734375 5.6015625 C18.7484375 6.5915625 18.7484375 6.5915625 21.2734375 7.6015625 C21.7684375 17.0065625 21.7684375 17.0065625 22.2734375 26.6015625 C20.9534375 26.2715625 19.6334375 25.9415625 18.2734375 25.6015625 C17.6134375 23.2915625 16.9534375 20.9815625 16.2734375 18.6015625 C15.94730469 19.09527344 15.62117188 19.58898437 15.28515625 20.09765625 C14.84816406 20.73832031 14.41117188 21.37898438 13.9609375 22.0390625 C13.53167969 22.67714844 13.10242188 23.31523437 12.66015625 23.97265625 C11.2734375 25.6015625 11.2734375 25.6015625 8.2734375 26.6015625 C7.2834375 25.9415625 6.2934375 25.2815625 5.2734375 24.6015625 C3.60868064 24.25881844 1.94148427 23.92791948 0.2734375 23.6015625 C-2.74601118 22.65766762 -5.73740951 21.63702073 -8.7265625 20.6015625 C-8.7265625 22.9115625 -8.7265625 25.2215625 -8.7265625 27.6015625 C-10.0465625 27.6015625 -11.3665625 27.6015625 -12.7265625 27.6015625 C-13.97904752 25.09659246 -13.84030656 23.39302976 -13.82421875 20.59375 C-13.82099609 19.60761719 -13.81777344 18.62148438 -13.81445312 17.60546875 C-13.80607422 16.57292969 -13.79769531 15.54039063 -13.7890625 14.4765625 C-13.78455078 13.43628906 -13.78003906 12.39601563 -13.77539062 11.32421875 C-13.76358202 8.74994288 -13.74711325 6.17578104 -13.7265625 3.6015625 C-16.3665625 4.2615625 -19.0065625 4.9215625 -21.7265625 5.6015625 C-21.5821875 6.91511719 -21.4378125 8.22867187 -21.2890625 9.58203125 C-21.10142336 11.3176933 -20.91393107 13.05337122 -20.7265625 14.7890625 C-20.58347656 16.08553711 -20.58347656 16.08553711 -20.4375 17.40820312 C-19.99966061 21.48949175 -19.59034337 25.48944752 -19.7265625 29.6015625 C-20.7165625 29.9315625 -21.7065625 30.2615625 -22.7265625 30.6015625 C-23.3865625 30.2715625 -24.0465625 29.9415625 -24.7265625 29.6015625 C-25.22900391 27.83569336 -25.22900391 27.83569336 -25.578125 25.56640625 C-25.70703125 24.75751953 -25.8359375 23.94863281 -25.96875 23.11523438 C-26.09507812 22.26509766 -26.22140625 21.41496094 -26.3515625 20.5390625 C-26.485625 19.68505859 -26.6196875 18.83105469 -26.7578125 17.95117188 C-27.08869824 15.83586661 -27.40865049 13.71885646 -27.7265625 11.6015625 C-28.7165625 12.2615625 -29.7065625 12.9215625 -30.7265625 13.6015625 C-32.9140625 13.2265625 -32.9140625 13.2265625 -34.7265625 12.6015625 C-33.3884092 8.5871026 -30.96342358 7.24389808 -27.7265625 4.6015625 C-27.0665625 3.6115625 -26.4065625 2.6215625 -25.7265625 1.6015625 C-18.30381763 -1.63092317 -7.45397716 -3.82310003 0 0 Z M-9.7265625 2.6015625 C-9.7265625 5.9015625 -9.7265625 9.2015625 -9.7265625 12.6015625 C-6.32343512 11.54281176 -3.71303019 10.59254096 -0.7265625 8.6015625 C-1.0565625 6.9515625 -1.3865625 5.3015625 -1.7265625 3.6015625 C-4.3665625 3.2715625 -7.0065625 2.9415625 -9.7265625 2.6015625 Z " fill="#828282" transform="translate(159.7265625,3.3984375)"/>
<path d="M0 0 C1.32 0 2.64 0 4 0 C4 4.95 4 9.9 4 15 C5.051875 14.195625 6.10375 13.39125 7.1875 12.5625 C10.09378704 10.495807 12.33631919 9.10176891 16 9 C16.99 9.66 17.98 10.32 19 11 C21.64632287 10.6878236 21.64632287 10.6878236 24 10 C24 10.66 24 11.32 24 12 C24.9590625 12.2165625 24.9590625 12.2165625 25.9375 12.4375 C28 13 28 13 29 14 C29.70125 13.278125 30.4025 12.55625 31.125 11.8125 C33.92770745 9.00176187 36.92262792 6.50483774 40 4 C40.66 4.33 41.32 4.66 42 5 C42.41064453 6.94604492 42.41064453 6.94604492 42.6328125 9.48046875 C42.71660156 10.39763672 42.80039063 11.31480469 42.88671875 12.25976562 C42.96535156 13.22591797 43.04398438 14.19207031 43.125 15.1875 C43.21136719 16.13431641 43.29773438 17.08113281 43.38671875 18.05664062 C43.79653073 22.71743873 44.11020147 27.31643732 44 32 C43.01 32.33 42.02 32.66 41 33 C38.68600977 30.68600977 38.67743196 30.01395276 38.3671875 26.8671875 C38.28339844 26.06152344 38.19960937 25.25585938 38.11328125 24.42578125 C38.03464844 23.58402344 37.95601562 22.74226563 37.875 21.875 C37.78863281 21.02550781 37.70226562 20.17601563 37.61328125 19.30078125 C37.40097443 17.20130273 37.19946397 15.10073758 37 13 C36.566875 13.474375 36.13375 13.94875 35.6875 14.4375 C34 16 34 16 31 17 C31.1546875 18.3303125 31.1546875 18.3303125 31.3125 19.6875 C31 23 31 23 28.875 25.8125 C25.71910002 28.21372825 23.92566103 28.82931909 20 29 C19.01 28.67 18.02 28.34 17 28 C15.6078125 28.061875 15.6078125 28.061875 14.1875 28.125 C10.4504433 27.97844876 8.21645391 26.83797366 5 25 C5 26.65 5 28.3 5 30 C3.68 30 2.36 30 1 30 C0.63240594 26.31371097 0.28335601 22.62588695 -0.0625 18.9375 C-0.16626953 17.89916016 -0.27003906 16.86082031 -0.37695312 15.79101562 C-0.88241256 10.30068041 -1.09817468 5.41407797 0 0 Z M6 19 C6 19.66 6 20.32 6 21 C9.3 21.99 12.6 22.98 16 24 C16.66 20.37 17.32 16.74 18 13 C14.04862243 13 8.81429051 16.41085273 6 19 Z M22 15 C20.31369881 18.51033129 20.31369881 18.51033129 20.375 22.3125 C20.58125 22.869375 20.7875 23.42625 21 24 C22.65 23.67 24.3 23.34 26 23 C26.33 21.35 26.66 19.7 27 18 C25.35 17.01 23.7 16.02 22 15 Z " fill="#EAEAEA" transform="translate(80,1)"/>
<path d="M0 0 C-0.33 1.65 -0.66 3.3 -1 5 C-5.455 5.495 -5.455 5.495 -10 6 C-10 11.61 -10 17.22 -10 23 C-6.535 22.505 -6.535 22.505 -3 22 C-2.34 22.33 -1.68 22.66 -1 23 C-1 24.32 -1 25.64 -1 27 C-7.69613196 27.797837 -14.25766581 28.12910853 -21 28 C-21.66 26.35 -22.32 24.7 -23 23 C-20.36 23 -17.72 23 -15 23 C-15.01740234 21.66195313 -15.01740234 21.66195313 -15.03515625 20.296875 C-15.04417969 19.12640625 -15.05320312 17.9559375 -15.0625 16.75 C-15.07410156 15.58984375 -15.08570313 14.4296875 -15.09765625 13.234375 C-15.01782092 10.59022872 -14.78643778 8.50173909 -14 6 C-14.99 6.495 -14.99 6.495 -16 7 C-19 7.1875 -19 7.1875 -22 7 C-22.66 6.34 -23.32 5.68 -24 5 C-24 4.01 -24 3.02 -24 2 C-20.75033015 1.66339508 -17.50021572 1.33128921 -14.25 1 C-13.32960938 0.90460937 -12.40921875 0.80921875 -11.4609375 0.7109375 C-10.12675781 0.57558594 -10.12675781 0.57558594 -8.765625 0.4375 C-7.94868164 0.35371094 -7.13173828 0.26992188 -6.29003906 0.18359375 C-4.19917501 0.01596798 -2.09757262 0 0 0 Z " fill="#EBEBEB" transform="translate(24,3)"/>
<path d="M0 0 C3.73584906 1.47169811 3.73584906 1.47169811 5 4 C5.2322646 6.71262116 5.41936235 9.40773126 5.5625 12.125 C5.60568359 12.87910156 5.64886719 13.63320313 5.69335938 14.41015625 C5.7994832 16.27321888 5.90025001 18.13658524 6 20 C4.35 19.67 2.7 19.34 1 19 C0.67 17.68 0.34 16.36 0 15 C-0.44730469 15.44472656 -0.89460938 15.88945312 -1.35546875 16.34765625 C-3.17670143 18.05239217 -4.92770506 19.60847964 -7 21 C-9.9375 20.875 -9.9375 20.875 -12 20 C-12.92667596 16.95287141 -13.18715457 15.456629 -11.9609375 12.46484375 C-8.62556949 7.14961443 -5.75914975 2.87957487 0 0 Z M-2.47265625 6.390625 C-2.99730469 7.00421875 -3.52195312 7.6178125 -4.0625 8.25 C-4.58972656 8.85328125 -5.11695313 9.4565625 -5.66015625 10.078125 C-7.05446823 12.07812935 -7.57323058 13.61852126 -8 16 C-2.69278023 13.64123566 -1.16360269 10.08869684 1 5 C-1.09522384 4.77114437 -1.09522384 4.77114437 -2.47265625 6.390625 Z " fill="#CCCCCC" transform="translate(56,9)"/>
<path d="M0 0 C2.475 0.99 2.475 0.99 5 2 C5.33 8.27 5.66 14.54 6 21 C4.68 20.67 3.36 20.34 2 20 C1.34 17.69 0.68 15.38 0 13 C-0.32613281 13.49371094 -0.65226563 13.98742188 -0.98828125 14.49609375 C-1.42527344 15.13675781 -1.86226562 15.77742188 -2.3125 16.4375 C-2.74175781 17.07558594 -3.17101562 17.71367187 -3.61328125 18.37109375 C-5 20 -5 20 -8 21 C-10.2477975 18.94766315 -11.0022242 17.99332739 -12 15 C-11.4765625 12.15234375 -11.4765625 12.15234375 -10.625 8.9375 C-10.34914062 7.87402344 -10.07328125 6.81054688 -9.7890625 5.71484375 C-9 3 -9 3 -8 1 C-6.68 1 -5.36 1 -4 1 C-4.66 5.29 -5.32 9.58 -6 14 C-5.195625 12.618125 -4.39125 11.23625 -3.5625 9.8125 C-2.88380859 8.64654297 -2.88380859 8.64654297 -2.19140625 7.45703125 C-0.97608501 4.95068023 -0.42373425 2.74209635 0 0 Z " fill="#8F8F8F" transform="translate(176,9)"/>
<path d="M0 0 C1.32 0 2.64 0 4 0 C4.66 1.65 5.32 3.3 6 5 C6.99 3.68 7.98 2.36 9 1 C10.65 1.33 12.3 1.66 14 2 C15.13480527 5.60993172 15.10015767 8.9842327 15.0625 12.75 C15.05347656 13.92046875 15.04445313 15.0909375 15.03515625 16.296875 C15.02355469 17.18890625 15.01195313 18.0809375 15 19 C11.125 21 11.125 21 10 21 C9.67 17.37 9.34 13.74 9 10 C7.68 12.64 6.36 15.28 5 18 C3.68 18 2.36 18 1 18 C0.10395632 11.95170514 -0.11269443 6.1105424 0 0 Z " fill="#ECECEC" transform="translate(63,10)"/>
<path d="M0 0 C0.99 0.33 1.98 0.66 3 1 C2.39327778 3.81692459 1.52416364 6.05159781 0.125 8.5625 C-2.41971695 13.47547543 -3.70085624 18.645953 -5 24 C-6.32 24 -7.64 24 -9 24 C-10.17154293 21.71070947 -11.33738074 19.41881638 -12.5 17.125 C-12.83386719 16.47402344 -13.16773438 15.82304687 -13.51171875 15.15234375 C-16 10.2265625 -16 10.2265625 -16 8 C-16.66 8 -17.32 8 -18 8 C-17.67 6.35 -17.34 4.7 -17 3 C-15.171875 3.18359375 -15.171875 3.18359375 -13 4 C-11.515625 6.28515625 -11.515625 6.28515625 -10.25 9.0625 C-9.82203125 9.98160156 -9.3940625 10.90070312 -8.953125 11.84765625 C-8.63859375 12.55792969 -8.3240625 13.26820312 -8 14 C-7.59007812 13.15695313 -7.18015625 12.31390625 -6.7578125 11.4453125 C-5.94957031 9.80175781 -5.94957031 9.80175781 -5.125 8.125 C-4.59132813 7.03445312 -4.05765625 5.94390625 -3.5078125 4.8203125 C-2 2 -2 2 0 0 Z " fill="#BEBEBE" transform="translate(42,7)"/>
<path d="M0 0 C0 1.65 0 3.3 0 5 C-2.64 5.33 -5.28 5.66 -8 6 C-8 6.66 -8 7.32 -8 8 C-6.9275 8.12375 -5.855 8.2475 -4.75 8.375 C-1.62136385 8.89643936 0.33480424 9.40088254 3 11 C3.3125 13.75 3.3125 13.75 3 17 C-0.28799052 20.57810733 -3.19335212 21.68652296 -8 22 C-8.99 21.67 -9.98 21.34 -11 21 C-10.67 19.68 -10.34 18.36 -10 17 C-9.4225 16.87625 -8.845 16.7525 -8.25 16.625 C-5.97387794 15.99274387 -4.09239794 15.08136532 -2 14 C-2.63808594 13.79503906 -3.27617187 13.59007812 -3.93359375 13.37890625 C-4.75988281 13.10949219 -5.58617187 12.84007812 -6.4375 12.5625 C-7.26121094 12.29566406 -8.08492187 12.02882813 -8.93359375 11.75390625 C-11 11 -11 11 -12 10 C-12.375 7.6875 -12.375 7.6875 -12 5 C-7.98058432 1.19213251 -5.46447719 -0.14380203 0 0 Z " fill="#A1A1A1" transform="translate(195,9)"/>
<path d="M0 0 C0.33 8.25 0.66 16.5 1 25 C1.66 25 2.32 25 3 25 C2.67 24.34 2.34 23.68 2 23 C1.960008 21.00039988 1.95653201 18.99952758 2 17 C3.98146451 17.44829514 5.96014211 17.90892498 7.9375 18.375 C9.03964844 18.63023438 10.14179688 18.88546875 11.27734375 19.1484375 C12.17582031 19.42945312 13.07429688 19.71046875 14 20 C14.495 20.99 14.495 20.99 15 22 C11.37 21.01 7.74 20.02 4 19 C4 21.31 4 23.62 4 26 C2.68 26 1.36 26 0 26 C-1.25248502 23.49502996 -1.11374406 21.79146726 -1.09765625 18.9921875 C-1.09443359 18.00605469 -1.09121094 17.01992188 -1.08789062 16.00390625 C-1.07951172 14.97136719 -1.07113281 13.93882813 -1.0625 12.875 C-1.05798828 11.83472656 -1.05347656 10.79445313 -1.04882812 9.72265625 C-1.03701952 7.14838038 -1.02055075 4.57421854 -1 2 C-3.64 2.66 -6.28 3.32 -9 4 C-8.855625 5.31355469 -8.71125 6.62710937 -8.5625 7.98046875 C-8.37486086 9.7161308 -8.18736857 11.45180872 -8 13.1875 C-7.90460938 14.05181641 -7.80921875 14.91613281 -7.7109375 15.80664062 C-7.27309811 19.88792925 -6.86378087 23.88788502 -7 28 C-7.99 28.33 -8.98 28.66 -10 29 C-10.66 28.67 -11.32 28.34 -12 28 C-12.50244141 26.23413086 -12.50244141 26.23413086 -12.8515625 23.96484375 C-12.98046875 23.15595703 -13.109375 22.34707031 -13.2421875 21.51367188 C-13.36851562 20.66353516 -13.49484375 19.81339844 -13.625 18.9375 C-13.7590625 18.08349609 -13.893125 17.22949219 -14.03125 16.34960938 C-14.36213574 14.23430411 -14.68208799 12.11729396 -15 10 C-15.99 10.66 -16.98 11.32 -18 12 C-20.1875 11.625 -20.1875 11.625 -22 11 C-21.67 10.01 -21.34 9.02 -21 8 C-20.34 8.33 -19.68 8.66 -19 9 C-17.01669827 8.13350534 -17.01669827 8.13350534 -15 7 C-14.01 6.67 -13.02 6.34 -12 6 C-11.34 12.6 -10.68 19.2 -10 26 C-10 18.41 -10 10.82 -10 3 C-2 0 -2 0 0 0 Z " fill="#E8E8E8" transform="translate(147,5)"/>
<path d="M0 0 C0.99 0.33 1.98 0.66 3 1 C3.33808357 4.37454164 3.66961318 7.74969681 4 11.125 C4.09539062 12.07632812 4.19078125 13.02765625 4.2890625 14.0078125 C4.74437277 18.69100382 5.12693246 23.2876326 5 28 C4.01 28.33 3.02 28.66 2 29 C-1.14067245 25.85932755 -0.97821454 22.79211944 -1.09765625 18.44921875 C-1.08605469 17.20785156 -1.07445313 15.96648438 -1.0625 14.6875 C-1.05347656 13.43324219 -1.04445313 12.17898437 -1.03515625 10.88671875 C-1.02355469 9.93410156 -1.01195313 8.98148438 -1 8 C-1.78375 8.495 -2.5675 8.99 -3.375 9.5 C-6 11 -6 11 -8 11 C-8 9 -8 9 -5.6875 6.625 C-4.800625 5.75875 -3.91375 4.8925 -3 4 C-1.97186389 2.68824014 -0.95915568 1.3630107 0 0 Z " fill="#959595" transform="translate(119,5)"/>
<path d="M0 0 C0.66 0 1.32 0 2 0 C2.33 4.95 2.66 9.9 3 15 C7.87727471 11.51255856 7.87727471 11.51255856 10 8 C14.375 6.6875 14.375 6.6875 17 8 C16.84375 9.87109375 16.84375 9.87109375 16 12 C13.53125 13.16015625 13.53125 13.16015625 10.5 14.0625 C7.52891783 14.89815548 7.52891783 14.89815548 5 16 C4.67 16.99 4.34 17.98 4 19 C7.63 20.32 11.26 21.64 15 23 C15 23.66 15 24.32 15 25 C10.43545749 24.45660208 7.0271824 23.20536179 3 21 C3 22.65 3 24.3 3 26 C2.34 26 1.68 26 1 26 C-0.15664737 20.51730931 -0.11416255 15.19660726 -0.0625 9.625 C-0.05798828 8.69816406 -0.05347656 7.77132813 -0.04882812 6.81640625 C-0.03711574 4.54420291 -0.02071372 2.27213612 0 0 Z " fill="#555555" transform="translate(81,3)"/>
<path d="M0 0 C0 0.66 0 1.32 0 2 C-3.61973402 3.31626692 -6.09567131 4 -10 4 C-10 10.27 -10 16.54 -10 23 C-7.03 23 -4.06 23 -1 23 C-1 23.66 -1 24.32 -1 25 C-7.27 25 -13.54 25 -20 25 C-20 24.34 -20 23.68 -20 23 C-17.36 23 -14.72 23 -12 23 C-12 16.73 -12 10.46 -12 4 C-14.97 4 -17.94 4 -21 4 C-21 3.34 -21 2.68 -21 2 C-17.87517892 1.66497499 -14.75011534 1.33226801 -11.625 1 C-10.73554688 0.90460937 -9.84609375 0.80921875 -8.9296875 0.7109375 C-8.07890625 0.62070313 -7.228125 0.53046875 -6.3515625 0.4375 C-5.17327881 0.31181641 -5.17327881 0.31181641 -3.97119141 0.18359375 C-2 0 -2 0 0 0 Z " fill="#3F3F3F" transform="translate(23,4)"/>
<path d="M0 0 C0.66 0 1.32 0 2 0 C0.125 4.75 0.125 4.75 -1 7 C-1.039992 8.99960012 -1.04346799 11.00047242 -1 13 C0.65 13 2.3 13 4 13 C5.0257259 8.58937864 5.03684712 6.07369424 3 2 C5.49361571 3.20381448 7.68143083 4.45428722 10 6 C10.43132515 10.05445642 10.30019361 11.54970958 8 15 C5.6875 15.58203125 5.6875 15.58203125 3 15.8125 C1.6696875 15.94591797 1.6696875 15.94591797 0.3125 16.08203125 C-2 16 -2 16 -4 14 C-4.21251576 8.84902281 -3.28100468 4.0684458 0 0 Z " fill="#C0C0C0" transform="translate(101,12)"/>
<path d="M0 0 C0.5775 0.226875 1.155 0.45375 1.75 0.6875 C2.81723961 4.14972615 2.85173486 7.32789266 2.8125 10.9375 C2.80347656 12.01515625 2.79445313 13.0928125 2.78515625 14.203125 C2.77355469 15.02296875 2.76195312 15.8428125 2.75 16.6875 C2.09 16.3575 1.43 16.0275 0.75 15.6875 C0.125 12.625 0.125 12.625 -0.25 9.6875 C-1.24 10.3475 -2.23 11.0075 -3.25 11.6875 C-3.085 10.73875 -2.92 9.79 -2.75 8.8125 C-2.1973365 5.88581099 -2.1973365 5.88581099 -2.25 3.6875 C-6.64291786 7.00659349 -9.0727865 9.48637886 -11.25 14.6875 C-12.25 11.6875 -12.25 11.6875 -11.17578125 9.53125 C-10.37720703 8.37109375 -10.37720703 8.37109375 -9.5625 7.1875 C-8.78326172 6.02734375 -8.78326172 6.02734375 -7.98828125 4.84375 C-3.67227452 -0.51003813 -3.67227452 -0.51003813 0 0 Z " fill="#767676" transform="translate(57.25,11.3125)"/>
<path d="M0 0 C0.66 0 1.32 0 2 0 C2.66 6.6 3.32 13.2 4 20 C4 16.37 4 12.74 4 9 C4.66 9.33 5.32 9.66 6 10 C6.4140625 12.72265625 6.4140625 12.72265625 6.625 16.0625 C6.69976562 17.16722656 6.77453125 18.27195312 6.8515625 19.41015625 C6.90054688 20.26480469 6.94953125 21.11945312 7 22 C6.01 22.33 5.02 22.66 4 23 C3.34 22.67 2.68 22.34 2 22 C1.49755859 20.23413086 1.49755859 20.23413086 1.1484375 17.96484375 C1.01953125 17.15595703 0.890625 16.34707031 0.7578125 15.51367188 C0.63148438 14.66353516 0.50515625 13.81339844 0.375 12.9375 C0.2409375 12.08349609 0.106875 11.22949219 -0.03125 10.34960938 C-0.36213574 8.23430411 -0.68208799 6.11729396 -1 4 C-1.99 4.66 -2.98 5.32 -4 6 C-6.1875 5.625 -6.1875 5.625 -8 5 C-7.67 4.01 -7.34 3.02 -7 2 C-6.34 2.33 -5.68 2.66 -5 3 C-3.08576342 2.18789963 -1.47927983 1.47927983 0 0 Z " fill="#DCDCDC" transform="translate(133,11)"/>
<path d="M0 0 C0.33 0.66 0.66 1.32 1 2 C2.65 1.67 4.3 1.34 6 1 C4.02 1.99 4.02 1.99 2 3 C2 3.66 2 4.32 2 5 C3.485 5.1546875 3.485 5.1546875 5 5.3125 C9.28297163 5.90808706 12.99996371 7.38595027 17 9 C17 9.99 17 10.98 17 12 C16.01 12 15.02 12 14 12 C13.67 11.34 13.34 10.68 13 10 C11.00708223 9.21655744 8.97948177 8.51983635 6.9375 7.875 C5.83277344 7.52179687 4.72804687 7.16859375 3.58984375 6.8046875 C2.73519531 6.53914063 1.88054687 6.27359375 1 6 C1.33 8.64 1.66 11.28 2 14 C1.34 14 0.68 14 0 14 C-0.19532961 12.2300132 -0.38098882 10.45895721 -0.5625 8.6875 C-0.66691406 7.70136719 -0.77132812 6.71523438 -0.87890625 5.69921875 C-1 3 -1 3 0 0 Z " fill="#121212" transform="translate(148,16)"/>
<path d="M0 0 C0.33 0 0.66 0 1 0 C1 6.27 1 12.54 1 19 C4.3 19 7.6 19 11 19 C11 19.66 11 20.32 11 21 C4.73 21 -1.54 21 -8 21 C-8 20.34 -8 19.68 -8 19 C-5.36 19 -2.72 19 0 19 C0 12.73 0 6.46 0 0 Z " fill="#161616" transform="translate(11,8)"/>
<path d="M0 0 C1.32 0 2.64 0 4 0 C3.67 0.99 3.34 1.98 3 3 C3 2.34 3 1.68 3 1 C2.34 1 1.68 1 1 1 C-0.04882391 4.56071312 -0.30386953 8.05527897 -0.5625 11.75 C-0.64628906 12.92046875 -0.73007813 14.0909375 -0.81640625 15.296875 C-0.87699219 16.18890625 -0.93757812 17.0809375 -1 18 C0.98 17.01 2.96 16.02 5 15 C4.1875 16.9375 4.1875 16.9375 3 19 C2.01 19.33 1.02 19.66 0 20 C-2.2477975 17.94766315 -3.0022242 16.99332739 -4 14 C-3.4765625 11.15234375 -3.4765625 11.15234375 -2.625 7.9375 C-2.34914062 6.87402344 -2.07328125 5.81054688 -1.7890625 4.71484375 C-1 2 -1 2 0 0 Z " fill="#E4E4E4" transform="translate(168,10)"/>
<path d="M0 0 C4.23862616 3.48172863 6.23702046 7.90798994 8 13 C8 13.99 8 14.98 8 16 C8.66 16 9.32 16 10 16 C10 16.99 10 17.98 10 19 C9.34 19 8.68 19 8 19 C6.82845707 16.71070947 5.66261926 14.41881638 4.5 12.125 C4.16613281 11.47402344 3.83226562 10.82304687 3.48828125 10.15234375 C1 5.2265625 1 5.2265625 1 3 C0.34 3 -0.32 3 -1 3 C-0.67 2.01 -0.34 1.02 0 0 Z " fill="#181818" transform="translate(26,11)"/>
<path d="M0 0 C0.66 0 1.32 0 2 0 C0.125 4.75 0.125 4.75 -1 7 C-1.039992 8.99960012 -1.04346799 11.00047242 -1 13 C1.97 13.495 1.97 13.495 5 14 C4.67 14.66 4.34 15.32 4 16 C1.125 16.125 1.125 16.125 -2 16 C-4 14 -4 14 -4.08203125 12.01171875 C-3.54507593 7.38145189 -3.02187733 3.74712789 0 0 Z " fill="#1C1C1C" transform="translate(101,12)"/>
<path d="M0 0 C1.98 0.495 1.98 0.495 4 1 C5.06723961 4.46222615 5.10173486 7.64039266 5.0625 11.25 C5.05347656 12.32765625 5.04445313 13.4053125 5.03515625 14.515625 C5.02355469 15.33546875 5.01195312 16.1553125 5 17 C4.34 16.67 3.68 16.34 3 16 C2.375 12.9375 2.375 12.9375 2 10 C1.01 10.66 0.02 11.32 -1 12 C-0.690625 11.278125 -0.38125 10.55625 -0.0625 9.8125 C0.93942963 7.16033333 1.69532299 4.8182623 2 2 C1.34 1.34 0.68 0.68 0 0 Z " fill="#1D1D1D" transform="translate(55,11)"/>
<path d="M0 0 C0.66 0 1.32 0 2 0 C2.12117188 0.62648438 2.24234375 1.25296875 2.3671875 1.8984375 C2.53476563 2.71570313 2.70234375 3.53296875 2.875 4.375 C3.03742188 5.18710937 3.19984375 5.99921875 3.3671875 6.8359375 C3.86658932 9.18673923 3.86658932 9.18673923 6 11 C4.625 13.5 4.625 13.5 3 16 C2.34 16 1.68 16 1 16 C0.67 10.72 0.34 5.44 0 0 Z " fill="#373737" transform="translate(64,11)"/>
<path d="M0 0 C0.99 0.33 1.98 0.66 3 1 C3 6.28 3 11.56 3 17 C2.34 17 1.68 17 1 17 C0.67 12.38 0.34 7.76 0 3 C-0.99 3.495 -0.99 3.495 -2 4 C-1.34 2.68 -0.68 1.36 0 0 Z " fill="#393939" transform="translate(73,12)"/>
<path d="M0 0 C5.445 1.485 5.445 1.485 11 3 C11.33 4.32 11.66 5.64 12 7 C11.01 7 10.02 7 9 7 C8.67 6.34 8.34 5.68 8 5 C5.65613191 4.08968728 5.65613191 4.08968728 2.9375 3.375 C2.01839844 3.11460938 1.09929687 2.85421875 0.15234375 2.5859375 C-0.91306641 2.29589844 -0.91306641 2.29589844 -2 2 C-1.34 1.34 -0.68 0.68 0 0 Z " fill="#3E3E3E" transform="translate(153,21)"/>
<path d="M0 0 C2.46800047 1.15173355 4.04783565 2.04783565 6 4 C6.125 6.625 6.125 6.625 6 9 C5.01 9 4.02 9 3 9 C3.33 7.35 3.66 5.7 4 4 C2.68 3.34 1.36 2.68 0 2 C0 1.34 0 0.68 0 0 Z " fill="#1B1B1B" transform="translate(104,14)"/>
<path d="M0 0 C0.33 0 0.66 0 1 0 C1 2.31 1 4.62 1 7 C1.66 7.33 2.32 7.66 3 8 C3 8.99 3 9.98 3 11 C2.34 11 1.68 11 1 11 C0.67 11.66 0.34 12.32 0 13 C-0.96661363 9.87819599 -0.98988909 7.47916205 -0.5625 4.25 C-0.46066406 3.45078125 -0.35882813 2.6515625 -0.25390625 1.828125 C-0.17011719 1.22484375 -0.08632812 0.6215625 0 0 Z " fill="#0C0C0C" transform="translate(82,12)"/>
<path d="M0 0 C0.33 0 0.66 0 1 0 C1.33 3.63 1.66 7.26 2 11 C1.01 10.67 0.02 10.34 -1 10 C-0.67 6.7 -0.34 3.4 0 0 Z " fill="#3F3F3F" transform="translate(121,21)"/>
<path d="M0 0 C0.66 0.66 1.32 1.32 2 2 C1.625 5.125 1.625 5.125 1 8 C0.34 7.67 -0.32 7.34 -1 7 C-1.04254356 5.00045254 -1.04080783 2.99958364 -1 1 C-0.67 0.67 -0.34 0.34 0 0 Z " fill="#A2A2A2" transform="translate(70,14)"/>
<path d="M0 0 C2.52588702 2.36292656 3.88820837 3.66462511 5 7 C4.01 7 3.02 7 2 7 C1.67 5.68 1.34 4.36 1 3 C0.34 3 -0.32 3 -1 3 C-0.67 2.01 -0.34 1.02 0 0 Z " fill="#2F2F2F" transform="translate(26,11)"/>
<path d="" fill="#FFFFFF" transform="translate(0,0)"/>
</svg>
