<?xml version="1.0" encoding="UTF-8"?>
<svg version="1.1" xmlns="http://www.w3.org/2000/svg" width="199" height="32">
<path d="M0 0 C2.2109375 1.5390625 2.2109375 1.5390625 3.2109375 2.5390625 C3.5859375 5.3515625 3.5859375 5.3515625 3.2109375 8.5390625 C-0.00730459 11.94661294 -3.32286504 13.29268181 -7.7890625 14.5390625 C-7.7890625 15.1990625 -7.7890625 15.8590625 -7.7890625 16.5390625 C-6.2421875 16.7246875 -6.2421875 16.7246875 -4.6640625 16.9140625 C-1.16789404 17.47796064 1.89491377 18.32588309 5.2109375 19.5390625 C5.2109375 20.8590625 5.2109375 22.1790625 5.2109375 23.5390625 C0.2109375 21.87239583 -4.7890625 20.20572917 -9.7890625 18.5390625 C-9.4590625 20.8490625 -9.1290625 23.1590625 -8.7890625 25.5390625 C-9.7790625 25.8690625 -10.7690625 26.1990625 -11.7890625 26.5390625 C-14.33963062 23.98849438 -13.66346248 17.93836619 -13.7890625 14.5390625 C-13.59667378 10.18920037 -13.23657802 5.86963581 -12.7890625 1.5390625 C-17.7390625 3.0240625 -17.7390625 3.0240625 -22.7890625 4.5390625 C-22.6446875 5.85261719 -22.5003125 7.16617187 -22.3515625 8.51953125 C-22.16392336 10.2551933 -21.97643107 11.99087122 -21.7890625 13.7265625 C-21.64597656 15.02303711 -21.64597656 15.02303711 -21.5 16.34570312 C-21.06216061 20.42699175 -20.65284337 24.42694752 -20.7890625 28.5390625 C-21.7790625 28.5390625 -22.7690625 28.5390625 -23.7890625 28.5390625 C-24.93137662 21.88480551 -26.01508717 15.24684872 -26.7890625 8.5390625 C-27.2015625 9.0340625 -27.6140625 9.5290625 -28.0390625 10.0390625 C-29.7890625 11.5390625 -29.7890625 11.5390625 -33.7890625 11.5390625 C-33.7890625 10.8790625 -33.7890625 10.2190625 -33.7890625 9.5390625 C-29.31847426 5.5390625 -29.31847426 5.5390625 -26.7890625 5.5390625 C-26.4590625 4.2190625 -26.1290625 2.8990625 -25.7890625 1.5390625 C-17.7981424 -1.10360399 -7.89719546 -4.13662619 0 0 Z M-10.7890625 1.5390625 C-10.8160668 2.99729462 -10.83546037 4.45566925 -10.8515625 5.9140625 C-10.86316406 6.72617188 -10.87476563 7.53828125 -10.88671875 8.375 C-10.93372584 10.58843392 -10.93372584 10.58843392 -9.7890625 12.5390625 C-5.07225702 11.40895845 -5.07225702 11.40895845 -0.7890625 9.2265625 C0.45783667 7.48781928 0.45783667 7.48781928 0.0234375 4.9140625 C-0.53550484 2.37354247 -0.53550484 2.37354247 -2.7890625 1.5390625 C-4.16249081 1.4701153 -5.53908352 1.45438542 -6.9140625 1.4765625 C-8.8321875 1.5075 -8.8321875 1.5075 -10.7890625 1.5390625 Z " fill="#000000" transform="translate(159.7890625,2.4609375)"/>
<path d="M0 0 C0.66 0 1.32 0 2 0 C2.66 4.95 3.32 9.9 4 15 C5.65 13.68 7.3 12.36 9 11 C12.3125 9.75 12.3125 9.75 15 9 C15 10.32 15 11.64 15 13 C14.41734375 13.11214844 13.8346875 13.22429688 13.234375 13.33984375 C10.79689343 14.06000876 9.2749414 15.04379395 7.25 16.5625 C6.1775 17.366875 5.105 18.17125 4 19 C7.96 20.65 11.92 22.3 16 24 C15.938125 22.96875 15.87625 21.9375 15.8125 20.875 C16.01450104 16.70031187 16.69313209 14.46030186 19 11 C21.94920623 9.61755958 22.83930034 9.94643345 26 11 C26 11.99 26 12.98 26 14 C26.99 14.33 27.98 14.66 29 15 C29.75 17.125 29.75 17.125 30 20 C26.90666667 25.54666667 26.90666667 25.54666667 24 27 C18.46153846 27.23076923 18.46153846 27.23076923 16 26 C14.52517395 25.79850574 13.0447732 25.63630098 11.5625 25.5 C8.78512294 25.24376752 6.67337533 24.89112511 4 24 C4 25.32 4 26.64 4 28 C3.01 28 2.02 28 1 28 C-0.84554209 21.77129543 -1.19258618 15.95309203 -1.1875 9.5 C-1.18814453 8.68611816 -1.18878906 7.87223633 -1.18945312 7.03369141 C-1.13470616 1.13470616 -1.13470616 1.13470616 0 0 Z M21 13 C18.67409146 16.63423209 18.83734167 19.77088331 19 24 C21.94727535 23.89830839 21.94727535 23.89830839 25 23 C26.45291273 20.53744315 26.45291273 20.53744315 27 18 C25.02 16.35 23.04 14.7 21 13 Z " fill="#000000" transform="translate(81,0)"/>
<path d="M0 0 C-1 1.5 -1 1.5 -3 3 C-5.64 3 -8.28 3 -11 3 C-11 9.27 -11 15.54 -11 22 C-7.04 21.505 -7.04 21.505 -3 21 C-2.34 21.33 -1.68 21.66 -1 22 C-1.33 22.99 -1.66 23.98 -2 25 C-8.6 25 -15.2 25 -22 25 C-22 24.01 -22 23.02 -22 22 C-19.36 22 -16.72 22 -14 22 C-14 16.39 -14 10.78 -14 5 C-16.64 4.67 -19.28 4.34 -22 4 C-22.33 3.01 -22.66 2.02 -23 1 C-19.91792919 0.63421676 -16.83424623 0.28442175 -13.75 -0.0625 C-12.87730469 -0.16626953 -12.00460937 -0.27003906 -11.10546875 -0.37695312 C-10.26113281 -0.47041016 -9.41679687 -0.56386719 -8.546875 -0.66015625 C-7.77182617 -0.74918213 -6.99677734 -0.83820801 -6.19824219 -0.92993164 C-3.92884036 -1.00226819 -2.16317911 -0.65714106 0 0 Z " fill="#000000" transform="translate(24,3)"/>
<path d="M0 0 C1.953125 0.8125 1.953125 0.8125 4 2 C5.39231291 7.56925164 5.10344499 13.28753774 5 19 C4.01 19 3.02 19 2 19 C1.67 16.69 1.34 14.38 1 12 C0.1028125 13.175625 0.1028125 13.175625 -0.8125 14.375 C-3 17 -3 17 -6 19 C-8.6875 19.125 -8.6875 19.125 -11 19 C-12.04901059 16.41782009 -12.29283493 14.69566153 -11.19921875 12.09765625 C-8.24520631 7.08449507 -4.60843626 3.50613018 0 0 Z M-5 7 C-7.96079268 11.1535802 -7.96079268 11.1535802 -9 16 C-4.13045212 14.60870061 -1.83659727 12.13332746 1 8 C1.42130907 5.24598049 1.42130907 5.24598049 1 3 C-1.39301454 3 -3.38475298 5.53500851 -5 7 Z " fill="#000000" transform="translate(56,8)"/>
<path d="M0 0 C0.99 0.33 1.98 0.66 3 1 C3.06058594 1.96421875 3.12117187 2.9284375 3.18359375 3.921875 C3.26738281 5.18515625 3.35117188 6.4484375 3.4375 7.75 C3.55931641 9.62945313 3.55931641 9.62945313 3.68359375 11.546875 C3.92515522 14.18317553 4.24283934 16.48037294 5 19 C3.68 18.67 2.36 18.34 1 18 C0.34 15.69 -0.32 13.38 -1 11 C-2.98 13.64 -4.96 16.28 -7 19 C-8.32 18.67 -9.64 18.34 -11 18 C-11.3540919 11.48208608 -11.03901852 6.82478551 -8 1 C-7.34 1 -6.68 1 -6 1 C-6.165 1.66 -6.33 2.32 -6.5 3 C-7.12183299 6.73099794 -7.06408926 10.21873378 -7 14 C-3.98320986 9.46330032 -1.46032495 5.31027254 0 0 Z " fill="#000000" transform="translate(177,8)"/>
<path d="M0 0 C0.99 0 1.98 0 3 0 C3.33 2.97 3.66 5.94 4 9 C4.680625 7.576875 4.680625 7.576875 5.375 6.125 C7 3 7 3 9 1 C9.99 1 10.98 1 12 1 C13.59412284 4.18824568 13.10174735 7.62896662 13.0625 11.125 C13.05798828 11.87910156 13.05347656 12.63320313 13.04882812 13.41015625 C13.03703499 15.27347127 13.01909942 17.13674555 13 19 C12.01 19 11.02 19 10 19 C9.67 14.38 9.34 9.76 9 5 C8.236875 6.794375 7.47375 8.58875 6.6875 10.4375 C5.38671875 13.49609375 5.38671875 13.49609375 4 16 C3.01 16.33 2.02 16.66 1 17 C-0.22517308 11.33357449 -0.09228867 5.76291482 0 0 Z " fill="#000000" transform="translate(64,9)"/>
<path d="M0 0 C0.66 0 1.32 0 2 0 C1.35554843 2.95650464 0.37585179 5.46663158 -0.9375 8.1875 C-2.99516032 12.6919055 -4.1267319 17.1395736 -5 22 C-6.32 22 -7.64 22 -9 22 C-11.31 17.05 -13.62 12.1 -16 7 C-16.66 7 -17.32 7 -18 7 C-17.67 5.68 -17.34 4.36 -17 3 C-15.171875 3.15234375 -15.171875 3.15234375 -13 4 C-11.515625 6.50390625 -11.515625 6.50390625 -10.25 9.5625 C-9.82203125 10.57441406 -9.3940625 11.58632813 -8.953125 12.62890625 C-8.63859375 13.41136719 -8.3240625 14.19382812 -8 15 C-7.50628906 14.00097656 -7.01257812 13.00195312 -6.50390625 11.97265625 C-5.85687605 10.6692186 -5.20973489 9.36583602 -4.5625 8.0625 C-4.23701172 7.40314453 -3.91152344 6.74378906 -3.57617188 6.06445312 C-1.11328125 1.11328125 -1.11328125 1.11328125 0 0 Z " fill="#000000" transform="translate(42,6)"/>
<path d="M0 0 C0 0.66 0 1.32 0 2 C-1.7015625 2.433125 -1.7015625 2.433125 -3.4375 2.875 C-4.613125 3.24625 -5.78875 3.6175 -7 4 C-7.33 4.66 -7.66 5.32 -8 6 C-4.37 7.32 -0.74 8.64 3 10 C2 15 2 15 0.9375 16.75 C-2.17653764 18.75905654 -5.33582847 18.69965807 -9 19 C-9 17.68 -9 16.36 -9 15 C-6.36 14.67 -3.72 14.34 -1 14 C-0.67 13.01 -0.34 12.02 0 11 C-0.69867188 10.87882812 -1.39734375 10.75765625 -2.1171875 10.6328125 C-3.02726563 10.46523438 -3.93734375 10.29765625 -4.875 10.125 C-5.77992188 9.96257813 -6.68484375 9.80015625 -7.6171875 9.6328125 C-10 9 -10 9 -12 7 C-11.81821121 4.18227369 -11.23528275 3.21175447 -9.125 1.3125 C-5.70204857 -0.80167588 -3.77387088 -1.17120131 0 0 Z " fill="#000000" transform="translate(195,9)"/>
<path d="M0 0 C1.32 0.33 2.64 0.66 4 1 C4.06058594 2.30195312 4.12117188 3.60390625 4.18359375 4.9453125 C4.26804562 6.67188399 4.35269126 8.398446 4.4375 10.125 C4.47681641 10.9809375 4.51613281 11.836875 4.55664062 12.71875 C4.78156402 17.21721792 5.13540883 21.56806207 6 26 C4.68 26 3.36 26 2 26 C1.86722656 24.86820313 1.73445313 23.73640625 1.59765625 22.5703125 C1.4194658 21.08851821 1.24106971 19.60674864 1.0625 18.125 C0.97548828 17.37863281 0.88847656 16.63226562 0.79882812 15.86328125 C0.36673937 11.8046769 0.36673937 11.8046769 -1 8 C-1.99 8.66 -2.98 9.32 -4 10 C-4.99 10 -5.98 10 -7 10 C-5.7632378 6.2897134 -3.99979707 5.39983766 -1 3 C-0.67 2.01 -0.34 1.02 0 0 Z " fill="#000000" transform="translate(118,4)"/>
</svg>
